<mxfile host="app.diagrams.net" modified="2020-12-13T00:36:47.871Z" agent="5.0 (Windows NT 10.0; Win64; x64) AppleWebKit/537.36 (KHTML, like Gecko) Chrome/87.0.4280.88 Safari/537.36 Edg/87.0.664.57" etag="5RF8_ElemvbqT2seNBIO" version="13.9.2" type="github">
  <diagram id="C5RBs43oDa-KdzZeNtuy" name="Page-1">
    <mxGraphModel dx="2062" dy="2291" grid="1" gridSize="10" guides="1" tooltips="1" connect="1" arrows="1" fold="1" page="1" pageScale="1" pageWidth="827" pageHeight="1169" math="0" shadow="0">
      <root>
        <mxCell id="WIyWlLk6GJQsqaUBKTNV-0" />
        <mxCell id="WIyWlLk6GJQsqaUBKTNV-1" parent="WIyWlLk6GJQsqaUBKTNV-0" />
        <mxCell id="lDJiyt1ZAquDDZP_IgNM-1" value="Pool" style="swimlane;html=1;childLayout=stackLayout;resizeParent=1;resizeParentMax=0;startSize=20;horizontal=0;horizontalStack=1;" vertex="1" parent="WIyWlLk6GJQsqaUBKTNV-1">
          <mxGeometry x="130" y="-1080" width="950" height="2310" as="geometry" />
        </mxCell>
        <mxCell id="lDJiyt1ZAquDDZP_IgNM-2" value="Lane 1" style="swimlane;html=1;startSize=20;" vertex="1" parent="lDJiyt1ZAquDDZP_IgNM-1">
          <mxGeometry x="20" width="410" height="2310" as="geometry" />
        </mxCell>
        <mxCell id="lDJiyt1ZAquDDZP_IgNM-20" style="edgeStyle=orthogonalEdgeStyle;rounded=0;orthogonalLoop=1;jettySize=auto;html=1;exitX=0.5;exitY=1;exitDx=0;exitDy=0;entryX=0.5;entryY=0;entryDx=0;entryDy=0;" edge="1" parent="lDJiyt1ZAquDDZP_IgNM-2" source="WIyWlLk6GJQsqaUBKTNV-10" target="WIyWlLk6GJQsqaUBKTNV-12">
          <mxGeometry relative="1" as="geometry">
            <mxPoint x="330" y="600" as="targetPoint" />
          </mxGeometry>
        </mxCell>
        <mxCell id="lDJiyt1ZAquDDZP_IgNM-21" value="=2(confirmed)" style="edgeLabel;html=1;align=center;verticalAlign=middle;resizable=0;points=[];" vertex="1" connectable="0" parent="lDJiyt1ZAquDDZP_IgNM-20">
          <mxGeometry x="-0.2696" y="-1" relative="1" as="geometry">
            <mxPoint x="1" y="-24" as="offset" />
          </mxGeometry>
        </mxCell>
        <mxCell id="lDJiyt1ZAquDDZP_IgNM-27" style="edgeStyle=orthogonalEdgeStyle;rounded=0;orthogonalLoop=1;jettySize=auto;html=1;entryX=0.5;entryY=0;entryDx=0;entryDy=0;" edge="1" parent="lDJiyt1ZAquDDZP_IgNM-2" source="WIyWlLk6GJQsqaUBKTNV-10" target="lDJiyt1ZAquDDZP_IgNM-22">
          <mxGeometry relative="1" as="geometry" />
        </mxCell>
        <mxCell id="lDJiyt1ZAquDDZP_IgNM-28" value="=1(suspected)" style="edgeLabel;html=1;align=center;verticalAlign=middle;resizable=0;points=[];" vertex="1" connectable="0" parent="lDJiyt1ZAquDDZP_IgNM-27">
          <mxGeometry x="-0.2933" y="1" relative="1" as="geometry">
            <mxPoint x="33" y="31" as="offset" />
          </mxGeometry>
        </mxCell>
        <mxCell id="WIyWlLk6GJQsqaUBKTNV-10" value="COVID status" style="rhombus;whiteSpace=wrap;html=1;shadow=0;fontFamily=Helvetica;fontSize=12;align=center;strokeWidth=1;spacing=6;spacingTop=-4;" parent="lDJiyt1ZAquDDZP_IgNM-2" vertex="1">
          <mxGeometry x="120" y="440" width="100" height="80" as="geometry" />
        </mxCell>
        <mxCell id="WIyWlLk6GJQsqaUBKTNV-12" value="User input location" style="rounded=1;whiteSpace=wrap;html=1;fontSize=12;glass=0;strokeWidth=1;shadow=0;" parent="lDJiyt1ZAquDDZP_IgNM-2" vertex="1">
          <mxGeometry x="110" y="750" width="120" height="40" as="geometry" />
        </mxCell>
        <mxCell id="lDJiyt1ZAquDDZP_IgNM-15" value="" style="edgeStyle=orthogonalEdgeStyle;rounded=0;orthogonalLoop=1;jettySize=auto;html=1;exitX=0;exitY=0.5;exitDx=0;exitDy=0;entryX=0.5;entryY=0;entryDx=0;entryDy=0;" edge="1" parent="lDJiyt1ZAquDDZP_IgNM-2" source="WIyWlLk6GJQsqaUBKTNV-10" target="lDJiyt1ZAquDDZP_IgNM-16">
          <mxGeometry relative="1" as="geometry">
            <mxPoint x="90" y="600" as="targetPoint" />
          </mxGeometry>
        </mxCell>
        <mxCell id="lDJiyt1ZAquDDZP_IgNM-17" value="=0(healthy)" style="edgeLabel;html=1;align=center;verticalAlign=middle;resizable=0;points=[];" vertex="1" connectable="0" parent="lDJiyt1ZAquDDZP_IgNM-15">
          <mxGeometry x="-0.04" y="7" relative="1" as="geometry">
            <mxPoint as="offset" />
          </mxGeometry>
        </mxCell>
        <mxCell id="lDJiyt1ZAquDDZP_IgNM-16" value="User input location" style="rounded=1;whiteSpace=wrap;html=1;fontSize=12;glass=0;strokeWidth=1;shadow=0;" vertex="1" parent="lDJiyt1ZAquDDZP_IgNM-2">
          <mxGeometry x="10" y="840" width="120" height="40" as="geometry" />
        </mxCell>
        <mxCell id="lDJiyt1ZAquDDZP_IgNM-22" value="User input location" style="rounded=1;whiteSpace=wrap;html=1;fontSize=12;glass=0;strokeWidth=1;shadow=0;" vertex="1" parent="lDJiyt1ZAquDDZP_IgNM-2">
          <mxGeometry x="260" y="540" width="120" height="40" as="geometry" />
        </mxCell>
        <mxCell id="WIyWlLk6GJQsqaUBKTNV-3" value="User Login" style="rounded=1;whiteSpace=wrap;html=1;fontSize=12;glass=0;strokeWidth=1;shadow=0;" parent="lDJiyt1ZAquDDZP_IgNM-2" vertex="1">
          <mxGeometry x="110" y="140" width="120" height="40" as="geometry" />
        </mxCell>
        <mxCell id="WIyWlLk6GJQsqaUBKTNV-5" value="No" style="edgeStyle=orthogonalEdgeStyle;rounded=0;html=1;jettySize=auto;orthogonalLoop=1;fontSize=11;endArrow=block;endFill=0;endSize=8;strokeWidth=1;shadow=0;labelBackgroundColor=none;entryX=1;entryY=0.5;entryDx=0;entryDy=0;exitX=1;exitY=0.5;exitDx=0;exitDy=0;" parent="lDJiyt1ZAquDDZP_IgNM-2" source="WIyWlLk6GJQsqaUBKTNV-6" target="WIyWlLk6GJQsqaUBKTNV-3" edge="1">
          <mxGeometry y="10" relative="1" as="geometry">
            <mxPoint as="offset" />
            <mxPoint x="270" y="270" as="targetPoint" />
            <Array as="points">
              <mxPoint x="280" y="265" />
              <mxPoint x="280" y="160" />
            </Array>
          </mxGeometry>
        </mxCell>
        <mxCell id="WIyWlLk6GJQsqaUBKTNV-6" value="ID and PSWD&lt;br&gt;Correct?" style="rhombus;whiteSpace=wrap;html=1;shadow=0;fontFamily=Helvetica;fontSize=12;align=center;strokeWidth=1;spacing=6;spacingTop=-4;" parent="lDJiyt1ZAquDDZP_IgNM-2" vertex="1">
          <mxGeometry x="100" y="230" width="140" height="70" as="geometry" />
        </mxCell>
        <mxCell id="WIyWlLk6GJQsqaUBKTNV-2" value="" style="rounded=0;html=1;jettySize=auto;orthogonalLoop=1;fontSize=11;endArrow=block;endFill=0;endSize=8;strokeWidth=1;shadow=0;labelBackgroundColor=none;edgeStyle=orthogonalEdgeStyle;" parent="lDJiyt1ZAquDDZP_IgNM-2" source="WIyWlLk6GJQsqaUBKTNV-3" target="WIyWlLk6GJQsqaUBKTNV-6" edge="1">
          <mxGeometry relative="1" as="geometry" />
        </mxCell>
        <mxCell id="lDJiyt1ZAquDDZP_IgNM-7" value="User input health status" style="rounded=1;whiteSpace=wrap;html=1;fontSize=12;glass=0;strokeWidth=1;shadow=0;" vertex="1" parent="lDJiyt1ZAquDDZP_IgNM-2">
          <mxGeometry x="110" y="350" width="120" height="40" as="geometry" />
        </mxCell>
        <mxCell id="lDJiyt1ZAquDDZP_IgNM-8" value="Yes" style="rounded=0;html=1;jettySize=auto;orthogonalLoop=1;fontSize=11;endArrow=block;endFill=0;endSize=8;strokeWidth=1;shadow=0;labelBackgroundColor=none;edgeStyle=orthogonalEdgeStyle;" edge="1" parent="lDJiyt1ZAquDDZP_IgNM-2" source="WIyWlLk6GJQsqaUBKTNV-6" target="lDJiyt1ZAquDDZP_IgNM-7">
          <mxGeometry y="20" relative="1" as="geometry">
            <mxPoint as="offset" />
            <mxPoint x="170" y="300" as="sourcePoint" />
            <mxPoint x="170" y="580" as="targetPoint" />
          </mxGeometry>
        </mxCell>
        <mxCell id="lDJiyt1ZAquDDZP_IgNM-13" style="edgeStyle=orthogonalEdgeStyle;rounded=0;orthogonalLoop=1;jettySize=auto;html=1;exitX=0.5;exitY=1;exitDx=0;exitDy=0;entryX=0.5;entryY=0;entryDx=0;entryDy=0;" edge="1" parent="lDJiyt1ZAquDDZP_IgNM-2" source="lDJiyt1ZAquDDZP_IgNM-7" target="WIyWlLk6GJQsqaUBKTNV-10">
          <mxGeometry relative="1" as="geometry" />
        </mxCell>
        <mxCell id="lDJiyt1ZAquDDZP_IgNM-77" style="edgeStyle=orthogonalEdgeStyle;rounded=0;orthogonalLoop=1;jettySize=auto;html=1;entryX=0.5;entryY=0;entryDx=0;entryDy=0;" edge="1" parent="lDJiyt1ZAquDDZP_IgNM-2" source="lDJiyt1ZAquDDZP_IgNM-74" target="WIyWlLk6GJQsqaUBKTNV-3">
          <mxGeometry relative="1" as="geometry" />
        </mxCell>
        <mxCell id="lDJiyt1ZAquDDZP_IgNM-74" value="User Agent" style="ellipse;whiteSpace=wrap;html=1;rounded=1;shadow=0;strokeWidth=1;glass=0;" vertex="1" parent="lDJiyt1ZAquDDZP_IgNM-2">
          <mxGeometry x="110" y="50" width="120" height="40" as="geometry" />
        </mxCell>
        <mxCell id="lDJiyt1ZAquDDZP_IgNM-30" value="" style="edgeStyle=orthogonalEdgeStyle;rounded=0;orthogonalLoop=1;jettySize=auto;html=1;exitX=0.5;exitY=1;exitDx=0;exitDy=0;" edge="1" parent="lDJiyt1ZAquDDZP_IgNM-1" source="lDJiyt1ZAquDDZP_IgNM-22" target="lDJiyt1ZAquDDZP_IgNM-29">
          <mxGeometry relative="1" as="geometry" />
        </mxCell>
        <mxCell id="lDJiyt1ZAquDDZP_IgNM-34" style="edgeStyle=orthogonalEdgeStyle;rounded=0;orthogonalLoop=1;jettySize=auto;html=1;exitX=0.5;exitY=1;exitDx=0;exitDy=0;" edge="1" parent="lDJiyt1ZAquDDZP_IgNM-1" source="lDJiyt1ZAquDDZP_IgNM-31" target="lDJiyt1ZAquDDZP_IgNM-33">
          <mxGeometry relative="1" as="geometry">
            <Array as="points">
              <mxPoint x="520" y="810" />
              <mxPoint x="695" y="810" />
            </Array>
          </mxGeometry>
        </mxCell>
        <mxCell id="lDJiyt1ZAquDDZP_IgNM-35" style="edgeStyle=orthogonalEdgeStyle;rounded=0;orthogonalLoop=1;jettySize=auto;html=1;entryX=0.5;entryY=0;entryDx=0;entryDy=0;exitX=0.5;exitY=1;exitDx=0;exitDy=0;" edge="1" parent="lDJiyt1ZAquDDZP_IgNM-1" source="WIyWlLk6GJQsqaUBKTNV-12" target="lDJiyt1ZAquDDZP_IgNM-33">
          <mxGeometry relative="1" as="geometry" />
        </mxCell>
        <mxCell id="lDJiyt1ZAquDDZP_IgNM-36" style="edgeStyle=orthogonalEdgeStyle;rounded=0;orthogonalLoop=1;jettySize=auto;html=1;entryX=0.5;entryY=0;entryDx=0;entryDy=0;exitX=0.5;exitY=1;exitDx=0;exitDy=0;" edge="1" parent="lDJiyt1ZAquDDZP_IgNM-1" source="lDJiyt1ZAquDDZP_IgNM-16" target="lDJiyt1ZAquDDZP_IgNM-33">
          <mxGeometry relative="1" as="geometry" />
        </mxCell>
        <mxCell id="lDJiyt1ZAquDDZP_IgNM-3" value="Lane 2" style="swimlane;html=1;startSize=20;" vertex="1" parent="lDJiyt1ZAquDDZP_IgNM-1">
          <mxGeometry x="430" width="180" height="2310" as="geometry" />
        </mxCell>
        <mxCell id="lDJiyt1ZAquDDZP_IgNM-32" style="edgeStyle=orthogonalEdgeStyle;rounded=0;orthogonalLoop=1;jettySize=auto;html=1;exitX=0.5;exitY=1;exitDx=0;exitDy=0;entryX=0.5;entryY=0;entryDx=0;entryDy=0;" edge="1" parent="lDJiyt1ZAquDDZP_IgNM-3" source="lDJiyt1ZAquDDZP_IgNM-29" target="lDJiyt1ZAquDDZP_IgNM-31">
          <mxGeometry relative="1" as="geometry" />
        </mxCell>
        <mxCell id="lDJiyt1ZAquDDZP_IgNM-29" value="Lab Agent" style="ellipse;whiteSpace=wrap;html=1;rounded=1;shadow=0;strokeWidth=1;glass=0;" vertex="1" parent="lDJiyt1ZAquDDZP_IgNM-3">
          <mxGeometry x="30" y="640" width="120" height="40" as="geometry" />
        </mxCell>
        <mxCell id="lDJiyt1ZAquDDZP_IgNM-31" value="update user&#39;s health status (testing result)" style="rounded=1;whiteSpace=wrap;html=1;fontSize=12;glass=0;strokeWidth=1;shadow=0;" vertex="1" parent="lDJiyt1ZAquDDZP_IgNM-3">
          <mxGeometry x="30" y="710" width="120" height="40" as="geometry" />
        </mxCell>
        <mxCell id="lDJiyt1ZAquDDZP_IgNM-4" value="Lane 3" style="swimlane;html=1;startSize=20;" vertex="1" parent="lDJiyt1ZAquDDZP_IgNM-1">
          <mxGeometry x="610" width="170" height="2310" as="geometry" />
        </mxCell>
        <mxCell id="lDJiyt1ZAquDDZP_IgNM-33" value="PHS Agent" style="ellipse;whiteSpace=wrap;html=1;rounded=1;shadow=0;strokeWidth=1;glass=0;" vertex="1" parent="lDJiyt1ZAquDDZP_IgNM-4">
          <mxGeometry x="25" y="940" width="120" height="40" as="geometry" />
        </mxCell>
        <mxCell id="lDJiyt1ZAquDDZP_IgNM-73" style="edgeStyle=orthogonalEdgeStyle;rounded=0;orthogonalLoop=1;jettySize=auto;html=1;entryX=0.5;entryY=0;entryDx=0;entryDy=0;" edge="1" parent="lDJiyt1ZAquDDZP_IgNM-4" source="lDJiyt1ZAquDDZP_IgNM-70" target="lDJiyt1ZAquDDZP_IgNM-71">
          <mxGeometry relative="1" as="geometry" />
        </mxCell>
        <mxCell id="lDJiyt1ZAquDDZP_IgNM-70" value="Input location to be notified" style="rounded=1;whiteSpace=wrap;html=1;fontSize=12;glass=0;strokeWidth=1;shadow=0;" vertex="1" parent="lDJiyt1ZAquDDZP_IgNM-4">
          <mxGeometry x="25" y="1110" width="120" height="40" as="geometry" />
        </mxCell>
        <mxCell id="lDJiyt1ZAquDDZP_IgNM-71" value="Input alert status&lt;br&gt;Alert/Safe" style="rounded=1;whiteSpace=wrap;html=1;fontSize=12;glass=0;strokeWidth=1;shadow=0;" vertex="1" parent="lDJiyt1ZAquDDZP_IgNM-4">
          <mxGeometry x="25" y="1200" width="120" height="40" as="geometry" />
        </mxCell>
        <mxCell id="lDJiyt1ZAquDDZP_IgNM-68" value="Area Status Listed" style="shape=parallelogram;perimeter=parallelogramPerimeter;whiteSpace=wrap;html=1;fixedSize=1;rounded=1;shadow=0;strokeWidth=1;glass=0;" vertex="1" parent="lDJiyt1ZAquDDZP_IgNM-4">
          <mxGeometry x="10" y="1020" width="150" height="40" as="geometry" />
        </mxCell>
        <mxCell id="lDJiyt1ZAquDDZP_IgNM-69" value="" style="edgeStyle=orthogonalEdgeStyle;rounded=0;orthogonalLoop=1;jettySize=auto;html=1;" edge="1" parent="lDJiyt1ZAquDDZP_IgNM-4" source="lDJiyt1ZAquDDZP_IgNM-33" target="lDJiyt1ZAquDDZP_IgNM-68">
          <mxGeometry relative="1" as="geometry" />
        </mxCell>
        <mxCell id="lDJiyt1ZAquDDZP_IgNM-72" style="edgeStyle=orthogonalEdgeStyle;rounded=0;orthogonalLoop=1;jettySize=auto;html=1;entryX=0.5;entryY=0;entryDx=0;entryDy=0;" edge="1" parent="lDJiyt1ZAquDDZP_IgNM-4" source="lDJiyt1ZAquDDZP_IgNM-68" target="lDJiyt1ZAquDDZP_IgNM-70">
          <mxGeometry relative="1" as="geometry" />
        </mxCell>
        <mxCell id="lDJiyt1ZAquDDZP_IgNM-66" value="Lane 4" style="swimlane;html=1;startSize=20;" vertex="1" parent="lDJiyt1ZAquDDZP_IgNM-1">
          <mxGeometry x="780" width="170" height="2310" as="geometry" />
        </mxCell>
        <mxCell id="lDJiyt1ZAquDDZP_IgNM-67" value="Alert Agent" style="ellipse;whiteSpace=wrap;html=1;rounded=1;shadow=0;strokeWidth=1;glass=0;" vertex="1" parent="lDJiyt1ZAquDDZP_IgNM-66">
          <mxGeometry x="25" y="1250" width="120" height="40" as="geometry" />
        </mxCell>
      </root>
    </mxGraphModel>
  </diagram>
</mxfile>
